<svg xmlns="http://www.w3.org/2000/svg" width="60" height="60" viewBox="0 0 60 60" version="1.1"><path d="" stroke="none" fill="#080404" fill-rule="evenodd"/><path d="M 18.500 8.662 C 16.850 9.531, 14.443 11.201, 13.151 12.372 C 11.859 13.542, 9.722 16.623, 8.401 19.217 C 6.785 22.392, 6 25.622, 6 29.101 C 6 31.943, 6.550 36.120, 7.222 38.384 C 7.957 40.857, 10.252 44.307, 12.972 47.028 C 15.693 49.748, 19.143 52.043, 21.616 52.778 C 23.880 53.450, 27.930 53.996, 30.616 53.990 C 33.625 53.984, 37.435 53.079, 40.541 51.633 C 43.313 50.342, 46.801 47.837, 48.291 46.066 C 49.781 44.295, 51 42.487, 51 42.049 C 51 41.610, 48.119 41.278, 44.598 41.311 C 39.657 41.357, 37.093 40.803, 33.357 38.881 C 30.696 37.511, 27.086 34.512, 25.334 32.216 C 23.469 29.770, 21.700 25.859, 21.062 22.771 C 20.216 18.679, 20.278 16.325, 21.340 12.250 C 22.092 9.362, 22.435 7.018, 22.104 7.040 C 21.772 7.062, 20.150 7.792, 18.500 8.662" stroke="none" fill="#040404" fill-rule="evenodd"/></svg>